# xmcd
#
# Track frame offsets:
#       150
#       14270
#       29044
#       44002
#       58463
#       72931
#       86845
#       100710
#       115431
#       131339
#       145778
#       159686
#       174139
#       189127
#       203190
#       217653
#       231189
#       246363
#       260718
#       276364
#       290374
#       303461
#
# Disc length: 4248 seconds
#
# Revision: 2
# Processed by: cddbd v1.4PL0 Copyright (c) Steve Scherf et al.
# Submitted via: WhereIsIt 3.51
#
DISCID=4b109616
DTITLE=Various Artist - Nothing But the Blues: Disc 09
DYEAR=1900
DGENRE=
TTITLE0=Woman's trouble blues
TTITLE1=Love me daddy's blues
TTITLE2=Follow the deal on down
TTITLE3=Sinful blues
TTITLE4=The St. Louis blues
TTITLE5=Reckless blues
TTITLE6=Sobbin' Hearted Blues
TTITLE7=Cold in hand blues
TTITLE8=You've been a good old wagon
TTITLE9=He's gone blues
TTITLE10=The yellow dog blues
TTITLE11=Weeping willow blues
TTITLE12=The bye bye blues
TTITLE13=Sing sing prison blues
TTITLE14=Cake walkin' babies
TTITLE15=Dyin' gambler's blues
TTITLE16=Soft pedal blues
TTITLE17=Dixie flyer blues
TTITLE18=Careless love blues
TTITLE19=J. C. Holmes blues
TTITLE20=Nobody's blues but mine
TTITLE21=Ain't gonna play second fiddle
EXTD=
EXTT0=
EXTT1=
EXTT2=
EXTT3=
EXTT4=
EXTT5=
EXTT6=
EXTT7=
EXTT8=
EXTT9=
EXTT10=
EXTT11=
EXTT12=
EXTT13=
EXTT14=
EXTT15=
EXTT16=
EXTT17=
EXTT18=
EXTT19=
EXTT20=
EXTT21=
PLAYORDER=
